<svg width="48" height="47" viewBox="0 0 48 47" fill="none" xmlns="http://www.w3.org/2000/svg">
<path d="M21.7917 38.25H7.92333L12.4283 30.3883L13.0687 32.3317L17.2646 30.9183L14.5483 22.7917H6.33333V27.2083H9.16L0.326666 42.6667H21.7917V38.25Z" fill="black"/>
<path d="M33.1204 26.1042L40.0767 38.25H31.5304L32.1929 37.6096L29.0571 34.4738L23.0946 40.4583L29.0571 46.4429L32.1929 43.3071L31.5304 42.6667H47.6733L36.9629 23.8958L33.1204 26.1042Z" fill="black"/>
<path d="M25.5017 20.4729L34.2246 23.3879L37.1396 14.665L32.9437 13.2517L32.3033 15.195L24 0.664166L13.2454 19.4792L17.0879 21.6875L24 9.58583L28.0412 16.6525L26.915 16.2771L25.5017 20.4729Z" fill="black"/>
</svg>
